<?xml version="1.0" standalone="no"?>
<!DOCTYPE svg PUBLIC "-//W3C//DTD SVG 20010904//EN"
 "http://www.w3.org/TR/2001/REC-SVG-20010904/DTD/svg10.dtd">
<svg version="1.0" xmlns="http://www.w3.org/2000/svg"
 width="60" height="60" viewBox="0 0 1879.000000 1879.000000"
 preserveAspectRatio="xMidYMid meet">

<g transform="translate(0.000000,1879.000000) scale(0.100000,-0.100000)"
fill="#000" stroke="none">
<path  d="M8945 18779 c-1838 -91 -3601 -713 -5087 -1795 -400 -292 -732 -577
-1103 -949 -372 -371 -657 -703 -949 -1103 -1873 -2571 -2321 -5912 -1191
-8877 402 -1054 977 -2007 1731 -2870 190 -218 621 -649 839 -839 1531 -1338
3412 -2141 5410 -2311 2118 -179 4218 357 5992 1531 529 351 982 723 1448
1189 372 371 657 703 949 1103 1784 2449 2280 5599 1334 8472 -398 1209 -1023
2302 -1874 3275 -190 218 -621 649 -839 839 -1445 1263 -3174 2039 -5070 2276
-495 61 -1092 84 -1590 59z m85 -4110 c189 -5 347 -43 525 -129 231 -111 444
-318 587 -570 26 -47 96 -213 102 -246 3 -10 11 -38 20 -61 8 -24 13 -43 10
-43 -2 0 0 -9 6 -19 5 -11 12 -34 15 -53 27 -185 32 -320 15 -409 -6 -30 -13
-67 -16 -84 -31 -182 -116 -389 -228 -559 -67 -102 -216 -254 -321 -328 -194
-136 -417 -221 -640 -242 -27 -3 -75 -8 -105 -11 -90 -10 -358 29 -420 62 -14
7 -31 13 -37 13 -23 0 -221 98 -285 141 -228 154 -400 350 -517 592 -38 77
-49 107 -66 182 -3 11 -12 49 -21 84 -24 99 -30 145 -38 301 -11 218 76 543
199 745 16 28 33 52 38 53 4 2 7 8 7 14 0 11 119 159 155 193 182 172 414 295
644 340 105 20 235 42 241 39 3 -1 61 -3 130 -5z m743 -2993 c392 -78 697
-223 1022 -485 188 -152 506 -468 585 -581 13 -19 83 -109 156 -200 196 -247
231 -291 266 -340 18 -25 66 -88 107 -140 42 -52 79 -99 83 -105 52 -68 204
-252 207 -249 2 1 -6 15 -16 31 -11 15 -36 57 -56 93 -21 36 -47 81 -60 101
-12 20 -42 69 -67 110 -24 41 -47 76 -51 79 -7 5 -54 87 -86 148 l-18 34 40
35 c51 44 46 40 140 100 80 51 276 150 311 157 11 2 48 12 84 21 36 9 76 19
90 21 14 3 41 10 60 15 60 18 365 23 481 8 57 -7 107 -12 111 -11 11 3 161
-36 199 -51 19 -8 43 -18 54 -22 11 -4 28 -10 38 -12 15 -2 171 -82 234 -118
58 -34 133 -87 133 -94 0 -5 12 -14 28 -20 15 -6 53 -36 84 -66 32 -30 61 -55
64 -55 10 0 107 -104 156 -168 50 -65 60 -116 29 -165 -26 -42 -123 -135 -176
-169 -22 -14 -49 -34 -60 -45 -11 -10 -56 -46 -100 -80 -92 -70 -139 -120
-227 -239 -80 -107 -121 -183 -147 -270 -38 -131 -45 -222 -47 -684 -1 -245
-7 -481 -13 -525 -5 -44 -13 -102 -16 -130 -3 -27 -10 -61 -15 -75 -12 -35
-38 -122 -60 -205 -50 -189 -67 -232 -171 -440 -55 -108 -176 -305 -205 -330
-6 -5 -26 -32 -44 -60 -50 -74 -220 -245 -345 -344 -193 -154 -440 -270 -639
-301 -223 -34 -329 -48 -386 -51 -115 -4 -233 0 -295 10 -33 6 -87 13 -120 16
-33 3 -78 10 -100 15 -22 5 -70 16 -106 24 -37 9 -87 25 -113 36 -25 10 -50
20 -54 20 -36 3 -382 157 -382 171 0 4 -12 12 -27 18 -56 23 -275 173 -318
217 -11 11 -65 59 -120 106 -55 47 -205 190 -334 317 -129 127 -236 230 -238
228 -5 -6 48 -97 84 -145 18 -24 33 -49 33 -55 0 -7 32 -50 70 -97 123 -150
130 -158 130 -168 0 -5 -17 -22 -37 -38 -48 -36 -309 -300 -753 -760 -69 -71
-169 -170 -224 -219 -99 -91 -247 -239 -272 -272 -7 -10 -65 -71 -128 -137
-64 -65 -138 -143 -164 -175 -26 -31 -70 -81 -98 -111 -145 -155 -252 -300
-325 -440 -51 -100 -58 -109 -125 -176 -39 -37 -74 -59 -135 -84 -84 -35 -84
-35 -244 -34 -89 1 -178 6 -202 13 -22 6 -88 20 -145 31 -56 11 -128 27 -158
35 -62 18 -62 18 -110 29 -32 8 -140 48 -215 81 -100 43 -225 101 -255 119
-14 8 -54 29 -90 47 -36 18 -105 56 -153 86 -49 29 -90 53 -92 53 -3 0 -24 13
-47 28 -24 16 -70 46 -103 68 -33 21 -62 41 -65 44 -3 3 -30 25 -60 50 -77 62
-138 124 -197 200 -68 87 -96 143 -138 270 -31 97 -34 116 -29 186 3 44 12
103 20 131 9 29 13 57 10 62 -3 5 1 11 9 15 8 3 15 13 15 21 0 19 79 126 124
169 17 16 53 45 81 64 27 19 52 38 55 41 8 9 112 75 140 89 38 18 210 141 269
192 132 114 236 332 402 835 82 252 144 438 213 640 20 61 38 117 39 125 1 8
8 21 14 28 7 7 16 25 19 40 13 62 167 473 244 652 32 74 61 146 65 158 4 13
19 49 35 80 27 56 45 96 80 177 9 22 31 72 48 110 17 39 38 88 45 110 8 22 41
94 72 160 31 66 66 142 76 168 11 27 48 106 83 175 36 70 85 172 109 227 72
160 196 409 210 420 6 6 12 15 13 20 1 28 30 81 162 295 190 309 359 514 573
692 149 125 414 262 609 317 116 32 308 68 380 70 35 1 67 4 69 7 10 10 342
-6 414 -20z"/>
</g>
</svg>
